<svg xmlns="http://www.w3.org/2000/svg" width="900" height="560" viewBox="0 0 900 560">
  <defs>
    <linearGradient id="bg" x1="0" y1="0" x2="1" y2="1">
      <stop offset="0" stop-color="#10080b"/>
      <stop offset=".52" stop-color="#1d1018"/>
      <stop offset="1" stop-color="#03060a"/>
    </linearGradient>
    <radialGradient id="redGlow" cx=".5" cy=".45" r=".8">
      <stop offset="0" stop-color="#b91625" stop-opacity=".55"/>
      <stop offset=".62" stop-color="#b91625" stop-opacity=".12"/>
      <stop offset="1" stop-color="#b91625" stop-opacity="0"/>
    </radialGradient>
    <filter id="shadow" x="-20%" y="-20%" width="140%" height="140%">
      <feDropShadow dx="0" dy="14" stdDeviation="12" flood-color="#000" flood-opacity=".55"/>
    </filter>
    <filter id="textShadow" x="-20%" y="-20%" width="140%" height="140%">
      <feDropShadow dx="0" dy="5" stdDeviation="3" flood-color="#000" flood-opacity=".9"/>
    </filter>
    <pattern id="grid" width="34" height="34" patternUnits="userSpaceOnUse">
      <path d="M34 0H0V34" fill="none" stroke="#ffffff" stroke-opacity=".05" stroke-width="1"/>
    </pattern>
  </defs>

  <rect width="900" height="560" rx="34" fill="url(#bg)"/>
  <rect width="900" height="560" rx="34" fill="url(#redGlow)"/>
  <rect width="900" height="560" rx="34" fill="url(#grid)"/>

  <g opacity=".9">
    <path d="M0 68 L900 18" stroke="#e03642" stroke-width="8" stroke-opacity=".25"/>
    <path d="M0 95 L900 48" stroke="#ffffff" stroke-width="2" stroke-opacity=".08"/>
    <path d="M0 495 L900 538" stroke="#e03642" stroke-width="10" stroke-opacity=".18"/>
  </g>

  <g transform="translate(76 112)" filter="url(#shadow)">
    <rect x="0" y="34" width="184" height="270" rx="16" fill="#111823" stroke="#3c4a63" stroke-width="4"/>
    <rect x="20" y="62" width="144" height="92" rx="8" fill="#06080c" stroke="#47546c" stroke-width="3"/>
    <text x="92" y="116" text-anchor="middle" font-family="Arial Black, Arial" font-size="26" fill="#7aa0ff">PS2</text>
    <circle cx="146" cy="236" r="12" fill="#39e36b"/>
    <rect x="36" y="203" width="66" height="16" rx="8" fill="#29344a"/>
  </g>

  <g transform="translate(188 318)" filter="url(#shadow)">
    <path d="M57 9 C94 -6 136 5 153 43 C175 31 206 41 218 68 C233 102 213 138 181 142 C162 164 115 154 96 139 C72 157 26 153 10 121 C-9 82 16 36 57 9Z" fill="#171e2c" stroke="#4c5a73" stroke-width="4"/>
    <circle cx="68" cy="80" r="20" fill="#090d14" stroke="#8793a7" stroke-width="4"/>
    <circle cx="162" cy="79" r="20" fill="#090d14" stroke="#8793a7" stroke-width="4"/>
    <path d="M49 80h38M68 61v38" stroke="#dfe8ff" stroke-width="8" stroke-linecap="round"/>
    <circle cx="155" cy="73" r="6" fill="#e63946"/>
    <circle cx="172" cy="87" r="6" fill="#37d967"/>
    <path d="M208 130 C272 154 343 143 401 178" stroke="#177ad6" stroke-width="18" fill="none" stroke-linecap="round"/>
    <path d="M406 170 l74 34 l-16 36 l-74 -34z" fill="#0f63b1" stroke="#78c8ff" stroke-width="4"/>
    <path d="M407 181 l61 28M399 199 l61 28" stroke="#dff7ff" stroke-width="5"/>
  </g>

  <g transform="translate(444 86)" filter="url(#textShadow)">
    <text x="0" y="64" font-family="Impact, Arial Black, Arial" font-size="66" fill="#fff1d9" stroke="#000" stroke-width="7" paint-order="stroke">PACK</text>
    <text x="0" y="140" font-family="Impact, Arial Black, Arial" font-size="91" fill="#f13945" stroke="#000" stroke-width="8" paint-order="stroke">OUTBREAK</text>
    <text x="5" y="210" font-family="Impact, Arial Black, Arial" font-size="57" fill="#ffffff" stroke="#000" stroke-width="6" paint-order="stroke">TOUT-EN-UN</text>
  </g>

  <g transform="translate(476 322)">
    <rect x="0" y="0" width="336" height="118" rx="22" fill="#080b12" stroke="#e03642" stroke-width="3" opacity=".92"/>
    <text x="26" y="38" font-family="Arial, Helvetica, sans-serif" font-size="27" font-weight="800" fill="#fff1d9">Patch • Textures • 16/9</text>
    <text x="26" y="75" font-family="Arial, Helvetica, sans-serif" font-size="27" font-weight="800" fill="#fff1d9">Connexion auto</text>
    <text x="26" y="104" font-family="Arial, Helvetica, sans-serif" font-size="18" font-weight="700" fill="#e0b652">Lien debloque apres 3 secondes</text>
  </g>

  <g transform="translate(760 58)" opacity=".8">
    <circle cx="40" cy="40" r="31" fill="none" stroke="#f13945" stroke-width="7"/>
    <circle cx="40" cy="40" r="9" fill="#f13945"/>
    <path d="M40 8 v26M40 46 v26M8 40 h26M46 40 h26" stroke="#f13945" stroke-width="8" stroke-linecap="round"/>
  </g>

  <rect x="2" y="2" width="896" height="556" rx="34" fill="none" stroke="#ffffff" stroke-opacity=".16" stroke-width="4"/>
</svg>
